<?xml version="1.0" encoding="iso-8859-1"?><svg xmlns="http://www.w3.org/2000/svg" xmlns:xlink="http://www.w3.org/1999/xlink"><symbol viewBox="0 0 511.766 511.766" id="lead" xmlns="http://www.w3.org/2000/svg"><path d="M48.216 199.908h-.078c-2.209 0-3.959 1.789-3.959 3.999 0 2.209 1.831 3.998 4.037 3.998a3.997 3.997 0 0 0 3.999-3.998 3.997 3.997 0 0 0-3.999-3.999zM64.208 199.908h-.078c-2.21 0-3.959 1.789-3.959 3.999 0 2.209 1.831 3.998 4.037 3.998a3.996 3.996 0 0 0 3.998-3.998 3.995 3.995 0 0 0-3.998-3.999zM80.201 199.908h-.078c-2.209 0-3.959 1.789-3.959 3.999 0 2.209 1.832 3.998 4.038 3.998a3.998 3.998 0 1 0-.001-7.997z"/><path d="M439.799 191.912H39.982c-6.614 0-11.994 5.381-11.994 11.995v7.997a3.996 3.996 0 0 0 3.998 3.998h415.809a3.996 3.996 0 0 0 3.998-3.998v-7.997c-.001-6.615-5.38-11.995-11.994-11.995zm3.998 15.993H35.984v-3.998a4.003 4.003 0 0 1 3.998-3.999h399.817c2.171 0 3.998 1.828 3.998 3.999v3.998z"/><path d="M447.794 207.905a3.996 3.996 0 0 0-3.998 3.999v135.937a3.995 3.995 0 0 0 3.998 3.998 3.995 3.995 0 0 0 3.998-3.997V211.904a3.996 3.996 0 0 0-3.998-3.999zM31.986 207.905a3.996 3.996 0 0 0-3.998 3.999v255.882a3.995 3.995 0 0 0 3.998 3.998 3.996 3.996 0 0 0 3.998-3.997V211.904a3.997 3.997 0 0 0-3.998-3.999z"/><path d="M335.846 463.787H31.986a3.996 3.996 0 0 0-3.998 3.999 3.995 3.995 0 0 0 3.998 3.998h303.86a3.996 3.996 0 0 0 3.999-3.998 3.997 3.997 0 0 0-3.999-3.999zM219.288 433.684l-39.981-63.971c-1.46-2.343-5.318-2.343-6.778 0l-39.981 63.971a3.995 3.995 0 0 0 1.269 5.505 3.98 3.98 0 0 0 5.51-1.272l36.592-58.544 36.592 58.544a3.988 3.988 0 0 0 5.508 1.272 3.994 3.994 0 0 0 1.269-5.505z"/><path d="M146.768 421.409l-19.437-27.877a3.989 3.989 0 0 0-3.271-1.711h-.008c-1.3 0-2.522.633-3.272 1.703l-28.096 39.981a3.998 3.998 0 1 0 6.544 4.592l24.813-35.304 16.168 23.192c1.257 1.812 3.748 2.249 5.568.992a4.002 4.002 0 0 0 .991-5.568zM415.81 239.89H63.971a3.996 3.996 0 0 0-3.998 3.999v63.971a3.995 3.995 0 0 0 3.998 3.998H415.81a3.995 3.995 0 0 0 3.998-3.998v-63.971a3.997 3.997 0 0 0-3.998-3.999zm-3.998 63.972H67.969v-55.975h343.843v55.975z"/><path d="M223.898 327.85H63.971a3.996 3.996 0 0 0-3.998 3.998v103.953a3.995 3.995 0 0 0 3.998 3.998h159.927a3.995 3.995 0 0 0 3.998-3.998V331.848a3.996 3.996 0 0 0-3.998-3.998zM219.9 431.803H67.969v-95.957H219.9v95.957z"/><path d="M91.958 343.843c-8.82 0-15.993 7.177-15.993 15.992 0 8.816 7.173 15.993 15.993 15.993 8.821 0 15.992-7.176 15.992-15.993 0-8.815-7.172-15.992-15.992-15.992zm0 23.989c-4.409 0-7.997-3.585-7.997-7.997s3.589-7.996 7.997-7.996 7.996 3.584 7.996 7.996c-.001 4.412-3.587 7.997-7.996 7.997zM415.81 343.843H255.883a3.995 3.995 0 0 0-3.998 3.998 3.995 3.995 0 0 0 3.998 3.998H415.81a3.995 3.995 0 0 0 3.998-3.998 3.996 3.996 0 0 0-3.998-3.998zM351.839 367.832h-95.956a3.995 3.995 0 0 0-3.998 3.998 3.995 3.995 0 0 0 3.998 3.998h95.956a3.995 3.995 0 0 0 3.998-3.998 3.996 3.996 0 0 0-3.998-3.998zM335.846 391.821h-79.963a3.996 3.996 0 0 0-3.998 3.998 3.995 3.995 0 0 0 3.998 3.998h79.963a3.996 3.996 0 0 0 3.999-3.998 3.996 3.996 0 0 0-3.999-3.998zM327.85 415.81h-71.967a3.995 3.995 0 0 0-3.998 3.998 3.995 3.995 0 0 0 3.998 3.998h71.967a3.995 3.995 0 0 0 3.998-3.998 3.995 3.995 0 0 0-3.998-3.998zM375.828 263.879H103.952a3.996 3.996 0 0 0-3.998 3.998 3.995 3.995 0 0 0 3.998 3.998h271.876a3.995 3.995 0 0 0 3.998-3.998 3.996 3.996 0 0 0-3.998-3.998zM327.85 279.872H151.931a3.995 3.995 0 0 0-3.998 3.998 3.995 3.995 0 0 0 3.998 3.998H327.85a3.995 3.995 0 0 0 3.998-3.998 3.995 3.995 0 0 0-3.998-3.998zM119.938 59.974c-15.95 0-27.979 12.877-27.979 29.947 0 17.203 16.019 34.023 27.979 34.023 11.963 0 27.995-16.821 27.995-34.023-.001-17.07-12.035-29.947-27.995-29.947zm0 55.973c-6.411 0-19.983-12.315-19.983-26.027 0-12.721 8.402-21.951 19.983-21.951 11.588 0 19.998 9.23 19.999 21.951 0 13.978-13.412 26.027-19.999 26.027z"/><path d="M155.643 125.841c-6.431-2.523-14.13-6.068-16.098-7.622a4.002 4.002 0 0 0-3.608-2.272 3.996 3.996 0 0 0-3.998 3.999c0 2.303 0 5.177 20.776 13.345.48.188.976.273 1.464.273a4 4 0 0 0 1.464-7.723z"/><path d="M135.938 106.124a3.996 3.996 0 0 0-3.998 3.998v9.824c0 2.21 1.788 3.998 3.998 3.998s3.998-1.789 3.999-3.998v-9.824a3.997 3.997 0 0 0-3.999-3.998zM103.952 115.947a4.003 4.003 0 0 0-3.607 2.272c-1.968 1.555-9.667 5.1-16.098 7.622a4.002 4.002 0 0 0 2.928 7.45c20.775-8.168 20.775-11.041 20.775-13.345a3.997 3.997 0 0 0-3.998-3.999z"/><path d="M103.952 106.124a3.996 3.996 0 0 0-3.998 3.998v9.824a3.995 3.995 0 0 0 3.998 3.998 3.996 3.996 0 0 0 3.998-3.998v-9.824a3.997 3.997 0 0 0-3.998-3.998z"/><path d="M119.945 43.979c-28.66 0-51.977 23.318-51.977 51.977s23.318 51.977 51.977 51.977 51.976-23.318 51.976-51.977-23.318-51.977-51.976-51.977zm0 95.957c-24.251 0-43.98-19.733-43.98-43.98s19.729-43.98 43.98-43.98c24.251 0 43.979 19.733 43.979 43.98s-19.729 43.98-43.979 43.98zM359.827 59.974c-15.953 0-27.979 12.877-27.979 29.947 0 17.203 16.024 34.023 27.979 34.023 11.964 0 27.995-16.821 27.995-34.023 0-17.07-12.033-29.947-27.995-29.947zm0 55.973c-6.411 0-19.982-12.315-19.982-26.027 0-12.721 8.402-21.951 19.982-21.951 11.589 0 19.999 9.23 19.999 21.951 0 13.978-13.416 26.027-19.999 26.027z"/><path d="M395.53 125.841c-6.426-2.523-14.126-6.068-16.094-7.622a4 4 0 0 0-3.607-2.272 3.996 3.996 0 0 0-3.998 3.999c0 2.303 0 5.177 20.779 13.345a4.012 4.012 0 0 0 5.186-2.265 4.01 4.01 0 0 0-2.266-5.185z"/><path d="M375.828 106.124a3.996 3.996 0 0 0-3.998 3.998v9.824a3.995 3.995 0 0 0 3.998 3.998 3.996 3.996 0 0 0 3.998-3.998v-9.824a3.996 3.996 0 0 0-3.998-3.998zM343.843 115.947c-1.592 0-2.96.929-3.608 2.272-1.967 1.555-9.667 5.1-16.094 7.622a4.009 4.009 0 0 0-2.265 5.185 4.009 4.009 0 0 0 5.186 2.265c20.779-8.168 20.779-11.041 20.779-13.345a3.997 3.997 0 0 0-3.998-3.999z"/><path d="M343.843 106.124a3.996 3.996 0 0 0-3.998 3.998v9.824c0 2.21 1.788 3.998 3.998 3.998s3.998-1.789 3.998-3.998v-9.824a3.997 3.997 0 0 0-3.998-3.998z"/><path d="M359.835 43.979c-28.659 0-51.976 23.318-51.976 51.977s23.318 51.977 51.976 51.977c28.659 0 51.977-23.318 51.977-51.977s-23.318-51.977-51.977-51.977zm0 95.957c-24.246 0-43.979-19.733-43.979-43.98s19.733-43.98 43.979-43.98c24.247 0 43.98 19.733 43.98 43.98s-19.733 43.98-43.98 43.98zM239.883 15.994c-15.95 0-27.979 12.877-27.979 29.947 0 17.202 16.02 34.023 27.979 34.023 11.963 0 27.994-16.821 27.995-34.023 0-17.07-12.034-29.947-27.995-29.947zm0 55.973c-6.411 0-19.983-12.315-19.983-26.027 0-12.721 8.402-21.951 19.983-21.951 11.588 0 19.998 9.23 19.999 21.951 0 13.978-13.412 26.027-19.999 26.027z"/><path d="M275.585 81.861c-6.427-2.522-14.126-6.068-16.095-7.622a4.001 4.001 0 0 0-3.607-2.272 3.996 3.996 0 0 0-3.998 3.998c0 2.304 0 5.178 20.779 13.346a4.012 4.012 0 0 0 5.186-2.265 4.01 4.01 0 0 0-2.265-5.185z"/><path d="M255.883 62.144a3.995 3.995 0 0 0-3.998 3.998v9.823c0 2.21 1.788 3.999 3.998 3.999s3.998-1.789 3.998-3.999v-9.823a3.996 3.996 0 0 0-3.998-3.998zM223.898 71.967a4.001 4.001 0 0 0-3.607 2.272c-1.968 1.555-9.668 5.1-16.099 7.622a4.002 4.002 0 0 0 2.929 7.45c20.775-8.168 20.775-11.042 20.775-13.346a3.996 3.996 0 0 0-3.998-3.998z"/><path d="M223.898 62.144a3.995 3.995 0 0 0-3.998 3.998v9.823c0 2.21 1.788 3.999 3.998 3.999s3.998-1.789 3.998-3.999v-9.823a3.995 3.995 0 0 0-3.998-3.998z"/><path d="M239.89 0c-28.659 0-51.976 23.317-51.976 51.976s23.317 51.976 51.976 51.976 51.976-23.317 51.976-51.976S268.549 0 239.89 0zm0 95.956c-24.251 0-43.98-19.733-43.98-43.98 0-24.247 19.73-43.98 43.98-43.98 24.247 0 43.98 19.733 43.98 43.98 0 24.247-19.733 43.98-43.98 43.98zM314.98 137.437c-1.374-1.719-3.881-1.992-5.622-.625l-39.981 31.97a4.004 4.004 0 0 0-.625 5.622 3.995 3.995 0 0 0 3.123 1.5c.875 0 1.758-.289 2.499-.874l39.981-31.97a4.004 4.004 0 0 0 .625-5.623z"/><path d="M271.875 159.927a3.996 3.996 0 0 0-3.998 3.998v7.981a3.997 3.997 0 0 0 3.998 3.998 3.996 3.996 0 0 0 3.999-3.998v-7.981a3.996 3.996 0 0 0-3.999-3.998z"/><path d="M279.872 167.923h-7.997a3.997 3.997 0 0 0-3.998 3.999 3.997 3.997 0 0 0 3.998 3.998h7.997a3.996 3.996 0 0 0 3.998-3.998 3.996 3.996 0 0 0-3.998-3.999zM210.398 168.781l-39.981-31.97a4.015 4.015 0 0 0-5.618.625 4.001 4.001 0 0 0 .628 5.623l39.982 31.97a3.993 3.993 0 0 0 5.618-.626 4 4 0 0 0-.629-5.622z"/><path d="M207.905 159.927a3.995 3.995 0 0 0-3.998 3.998v7.981a3.996 3.996 0 0 0 3.998 3.998 3.997 3.997 0 0 0 3.999-3.998v-7.981a3.996 3.996 0 0 0-3.999-3.998z"/><path d="M207.905 167.923h-7.997a3.996 3.996 0 0 0-3.998 3.999 3.996 3.996 0 0 0 3.998 3.998h7.997a3.997 3.997 0 0 0 3.999-3.998 3.997 3.997 0 0 0-3.999-3.999zM239.89 111.949a3.996 3.996 0 0 0-3.998 3.998v47.97a3.995 3.995 0 0 0 3.998 3.998 3.996 3.996 0 0 0 3.999-3.998v-47.97a3.998 3.998 0 0 0-3.999-3.998z"/><path d="M248.378 155.428a3.997 3.997 0 0 0-5.654 0l-5.661 5.662a3.997 3.997 0 0 0 2.827 6.825 3.98 3.98 0 0 0 2.826-1.171l5.662-5.662a3.997 3.997 0 0 0 0-5.654z"/><path d="M242.716 161.09l-5.661-5.662c-1.562-1.562-4.092-1.562-5.654 0s-1.562 4.092 0 5.654l5.662 5.662c.781.781 1.804 1.171 2.827 1.171s2.046-.39 2.826-1.171a3.997 3.997 0 0 0 0-5.654zM415.81 359.835c-37.475 0-67.969 30.494-67.969 67.97 0 37.475 30.494 67.969 67.969 67.969 37.475 0 67.969-30.495 67.969-67.969 0-37.476-30.493-67.97-67.969-67.97zm0 127.942c-33.072 0-59.973-26.902-59.973-59.972 0-33.072 26.902-59.973 59.973-59.973s59.972 26.902 59.973 59.973c0 33.071-26.901 59.972-59.973 59.972z"/><path d="M479.78 439.799a3.995 3.995 0 0 0-3.998 3.998c0 33.071-26.901 59.973-59.973 59.973s-59.973-26.903-59.973-59.973a3.995 3.995 0 0 0-3.998-3.998 3.995 3.995 0 0 0-3.998 3.998c0 37.475 30.494 67.969 67.969 67.969 37.475 0 67.969-30.494 67.969-67.969a3.995 3.995 0 0 0-3.998-3.998z"/><path d="M351.839 423.806a3.996 3.996 0 0 0-3.998 3.999v15.992a3.995 3.995 0 0 0 3.998 3.998 3.995 3.995 0 0 0 3.998-3.998v-15.992a3.996 3.996 0 0 0-3.998-3.999zM479.78 423.806a3.996 3.996 0 0 0-3.998 3.999v15.992a3.995 3.995 0 0 0 3.998 3.998 3.995 3.995 0 0 0 3.998-3.998v-15.992a3.996 3.996 0 0 0-3.998-3.999zM415.81 399.816a3.996 3.996 0 0 0-3.998 3.999v47.978a3.995 3.995 0 0 0 3.998 3.998 3.995 3.995 0 0 0 3.998-3.998v-47.978a3.997 3.997 0 0 0-3.998-3.999zM415.81 487.777a3.996 3.996 0 0 0-3.998 3.999v15.992a3.995 3.995 0 0 0 3.998 3.998 3.995 3.995 0 0 0 3.998-3.998v-15.992a3.996 3.996 0 0 0-3.998-3.999zM447.794 479.218a3.996 3.996 0 0 0-3.998 3.999v15.992a3.995 3.995 0 0 0 3.998 3.998 3.995 3.995 0 0 0 3.998-3.998v-15.992a3.995 3.995 0 0 0-3.998-3.999zM383.824 479.218a3.996 3.996 0 0 0-3.998 3.999v15.992a3.995 3.995 0 0 0 3.998 3.998 3.995 3.995 0 0 0 3.998-3.998v-15.992a3.996 3.996 0 0 0-3.998-3.999z"/></symbol><symbol viewBox="0 0 512 512" id="search-engine" xmlns="http://www.w3.org/2000/svg"><path d="M478.33 179.574H33.67c-18.566 0-33.67 15.105-33.67 33.67v85.511c0 18.566 15.105 33.67 33.67 33.67h444.66c18.566 0 33.67-15.105 33.67-33.67v-85.511c0-18.565-15.105-33.67-33.67-33.67zM359.148 316.392H33.67c-9.725 0-17.637-7.912-17.637-17.637v-85.511c0-9.725 7.912-17.637 17.637-17.637h325.478v120.785zm136.819-17.636c0 9.725-7.912 17.637-17.637 17.637H375.182V195.608H478.33c9.725 0 17.637 7.912 17.637 17.637v85.511z"/><path d="M475.447 284.536l-19.638-19.638a33.468 33.468 0 0 0 4.884-17.45c0-18.566-15.105-33.67-33.67-33.67-18.566 0-33.67 15.105-33.67 33.67s15.105 33.67 33.67 33.67a33.474 33.474 0 0 0 17.45-4.884l19.638 19.638c1.565 1.565 3.617 2.348 5.668 2.348s4.103-.782 5.668-2.348a8.015 8.015 0 0 0 0-11.336zm-48.424-19.45c-9.725 0-17.637-7.912-17.637-17.637 0-9.725 7.912-17.637 17.637-17.637 9.725 0 17.637 7.912 17.637 17.637 0 9.725-7.912 17.637-17.637 17.637zM42.221 213.779a8.017 8.017 0 0 0-8.017 8.017v68.409a8.017 8.017 0 0 0 16.034 0v-68.409a8.017 8.017 0 0 0-8.017-8.017z"/></symbol></svg>